PathFileType	4	(X/Y/Z)	markers.trc
DataRate	CameraRate	NumFrames	NumMarkers	Units	OrigDataRate	OrigDataStartFrame	OrigNumFrames
30	30	4	70	mm	30	113	450
Frame#	Time	nose			left-eye			right-eye			left-ear			right-ear			left-shoulder			right-shoulder			left-elbow			right-elbow			left-hip			right-hip			left-knee			right-knee			left-ankle			right-ankle			left-big-toe-tip			left-small-toe-tip			left-heel			right-big-toe-tip			right-small-toe-tip			right-heel			right-thumb-tip			right-thumb-first-joint			right-thumb-second-joint			right-thumb-third-joint			right-index-tip			right-index-first-joint			right-index-second-joint			right-index-third-joint			right-middle-tip			right-middle-first-joint			right-middle-second-joint			right-middle-third-joint			right-ring-tip			right-ring-first-joint			right-ring-second-joint			right-ring-third-joint			right-pinky-tip			right-pinky-first-joint			right-pinky-second-joint			right-pinky-third-joint			right-wrist			left-thumb-tip			left-thumb-first-joint			left-thumb-second-joint			left-thumb-third-joint			left-index-tip			left-index-first-joint			left-index-second-joint			left-index-third-joint			left-middle-tip			left-middle-first-joint			left-middle-second-joint			left-middle-third-joint			left-ring-tip			left-ring-first-joint			left-ring-second-joint			left-ring-third-joint			left-pinky-tip			left-pinky-first-joint			left-pinky-second-joint			left-pinky-third-joint			left-wrist			left-olecranon			right-olecranon			left-cubital-fossa			right-cubital-fossa			left-acromion			right-acromion			neck			
		X1	Y1	Z1	X2	Y2	Z2	X3	Y3	Z3	X4	Y4	Z4	X5	Y5	Z5	X6	Y6	Z6	X7	Y7	Z7	X8	Y8	Z8	X9	Y9	Z9	X10	Y10	Z10	X11	Y11	Z11	X12	Y12	Z12	X13	Y13	Z13	X14	Y14	Z14	X15	Y15	Z15	X16	Y16	Z16	X17	Y17	Z17	X18	Y18	Z18	X19	Y19	Z19	X20	Y20	Z20	X21	Y21	Z21	X22	Y22	Z22	X23	Y23	Z23	X24	Y24	Z24	X25	Y25	Z25	X26	Y26	Z26	X27	Y27	Z27	X28	Y28	Z28	X29	Y29	Z29	X30	Y30	Z30	X31	Y31	Z31	X32	Y32	Z32	X33	Y33	Z33	X34	Y34	Z34	X35	Y35	Z35	X36	Y36	Z36	X37	Y37	Z37	X38	Y38	Z38	X39	Y39	Z39	X40	Y40	Z40	X41	Y41	Z41	X42	Y42	Z42	X43	Y43	Z43	X44	Y44	Z44	X45	Y45	Z45	X46	Y46	Z46	X47	Y47	Z47	X48	Y48	Z48	X49	Y49	Z49	X50	Y50	Z50	X51	Y51	Z51	X52	Y52	Z52	X53	Y53	Z53	X54	Y54	Z54	X55	Y55	Z55	X56	Y56	Z56	X57	Y57	Z57	X58	Y58	Z58	X59	Y59	Z59	X60	Y60	Z60	X61	Y61	Z61	X62	Y62	Z62	X63	Y63	Z63	X64	Y64	Z64	X65	Y65	Z65	X66	Y66	Z66	X67	Y67	Z67	X68	Y68	Z68	X69	Y69	Z69	X70	Y70	Z70	

113	3.733333	0.00000	-392.00000	2649.79400	-20.80000	-412.80000	2649.79400	20.80000	-412.80000	2649.79400	-48.00000	-393.60000	2649.79400	48.00000	-393.60000	2649.79400	-88.00000	-312.00000	2649.79400	88.00000	-312.00000	2649.79400	-40.19800	-168.00000	2649.79400	40.19800	-168.00000	2649.79400	-51.20000	0.00000	2649.79400	51.20000	0.00000	2649.79400	-122.90400	184.00000	2649.79400	122.90400	160.09900	2649.79400	-202.57400	360.00000	2649.79400	202.57400	320.16500	2649.79400	-234.44300	387.20000	2649.79400	-253.64300	387.20000	2649.79400	-186.64000	384.00000	2649.79400	234.44300	347.36500	2649.79400	253.64300	347.36500	2649.79400	186.64000	344.16500	2649.79400	0.00000	0.00000	2600.00000	0.00000	0.00000	2600.00000	0.00000	0.00000	2600.00000	0.00000	0.00000	2600.00000	0.00000	0.00000	2600.00000	0.00000	0.00000	2600.00000	0.00000	0.00000	2600.00000	0.00000	0.00000	2600.00000	0.00000	0.00000	2600.00000	0.00000	0.00000	2600.00000	0.00000	0.00000	2600.00000	0.00000	0.00000	2600.00000	0.00000	0.00000	2600.00000	0.00000	0.00000	2600.00000	0.00000	0.00000	2600.00000	0.00000	0.00000	2600.00000	0.00000	0.00000	2600.00000	0.00000	0.00000	2600.00000	0.00000	0.00000	2600.00000	0.00000	0.00000	2600.00000	-15.57200	-32.06600	2649.79400	0.00000	0.00000	2600.00000	0.00000	0.00000	2600.00000	0.00000	0.00000	2600.00000	0.00000	0.00000	2600.00000	0.00000	0.00000	2600.00000	0.00000	0.00000	2600.00000	0.00000	0.00000	2600.00000	0.00000	0.00000	2600.00000	0.00000	0.00000	2600.00000	0.00000	0.00000	2600.00000	0.00000	0.00000	2600.00000	0.00000	0.00000	2600.00000	0.00000	0.00000	2600.00000	0.00000	0.00000	2600.00000	0.00000	0.00000	2600.00000	0.00000	0.00000	2600.00000	0.00000	0.00000	2600.00000	0.00000	0.00000	2600.00000	0.00000	0.00000	2600.00000	0.00000	0.00000	2600.00000	15.57200	-32.06600	2649.79400	0.00000	0.00000	2600.00000	0.00000	0.00000	2600.00000	0.00000	0.00000	2600.00000	0.00000	0.00000	2600.00000	0.00000	0.00000	2600.00000	0.00000	0.00000	2600.00000	0.00000	-328.00000	2649.79400
114	3.766667	0.00000	-392.00000	2649.79400	-20.80000	-412.80000	2649.79400	20.80000	-412.80000	2649.79400	-48.00000	-393.60000	2649.79400	48.00000	-393.60000	2649.79400	-88.00000	-312.00000	2649.79400	88.00000	-312.00000	2649.79400	-40.19800	-168.00000	2649.79400	40.19800	-168.00000	2649.79400	-51.20000	0.00000	2649.79400	51.20000	0.00000	2649.79400	-122.90400	184.00000	2649.79400	122.90400	160.09900	2649.79400	-202.57400	360.00000	2649.79400	202.57400	320.16500	2649.79400	-234.44300	387.20000	2649.79400	-253.64300	387.20000	2649.79400	-186.64000	384.00000	2649.79400	234.44300	347.36500	2649.79400	253.64300	347.36500	2649.79400	186.64000	344.16500	2649.79400	0.00000	0.00000	2600.00000	0.00000	0.00000	2600.00000	0.00000	0.00000	2600.00000	0.00000	0.00000	2600.00000	0.00000	0.00000	2600.00000	0.00000	0.00000	2600.00000	0.00000	0.00000	2600.00000	0.00000	0.00000	2600.00000	0.00000	0.00000	2600.00000	0.00000	0.00000	2600.00000	0.00000	0.00000	2600.00000	0.00000	0.00000	2600.00000	0.00000	0.00000	2600.00000	0.00000	0.00000	2600.00000	0.00000	0.00000	2600.00000	0.00000	0.00000	2600.00000	0.00000	0.00000	2600.00000	0.00000	0.00000	2600.00000	0.00000	0.00000	2600.00000	0.00000	0.00000	2600.00000	-15.57200	-32.06600	2649.79400	0.00000	0.00000	2600.00000	0.00000	0.00000	2600.00000	0.00000	0.00000	2600.00000	0.00000	0.00000	2600.00000	0.00000	0.00000	2600.00000	0.00000	0.00000	2600.00000	0.00000	0.00000	2600.00000	0.00000	0.00000	2600.00000	0.00000	0.00000	2600.00000	0.00000	0.00000	2600.00000	0.00000	0.00000	2600.00000	0.00000	0.00000	2600.00000	0.00000	0.00000	2600.00000	0.00000	0.00000	2600.00000	0.00000	0.00000	2600.00000	0.00000	0.00000	2600.00000	0.00000	0.00000	2600.00000	0.00000	0.00000	2600.00000	0.00000	0.00000	2600.00000	0.00000	0.00000	2600.00000	15.57200	-32.06600	2649.79400	0.00000	0.00000	2600.00000	0.00000	0.00000	2600.00000	0.00000	0.00000	2600.00000	0.00000	0.00000	2600.00000	0.00000	0.00000	2600.00000	0.00000	0.00000	2600.00000	0.00000	-328.00000	2649.79400
115	3.800000	0.00000	-392.00000	2648.15800	-20.80000	-412.80000	2648.15800	20.80000	-412.80000	2648.15800	-48.00000	-393.60000	2648.15800	48.00000	-393.60000	2648.15800	-88.00000	-312.00000	2648.15800	88.00000	-312.00000	2648.15800	-41.76800	-168.00000	2648.15800	41.76800	-168.00000	2648.15800	-51.20000	0.00000	2648.15800	51.20000	0.00000	2648.15800	-120.54800	184.00000	2648.15800	120.54800	160.88400	2648.15800	-197.60100	360.00000	2648.15800	197.60100	321.47400	2648.15800	-228.42200	387.20000	2648.15800	-247.62200	387.20000	2648.15800	-182.19000	384.00000	2648.15800	228.42200	348.67300	2648.15800	247.62200	348.67300	2648.15800	182.19000	345.47300	2648.15800	0.00000	0.00000	2600.00000	0.00000	0.00000	2600.00000	0.00000	0.00000	2600.00000	0.00000	0.00000	2600.00000	0.00000	0.00000	2600.00000	0.00000	0.00000	2600.00000	0.00000	0.00000	2600.00000	0.00000	0.00000	2600.00000	0.00000	0.00000	2600.00000	0.00000	0.00000	2600.00000	0.00000	0.00000	2600.00000	0.00000	0.00000	2600.00000	0.00000	0.00000	2600.00000	0.00000	0.00000	2600.00000	0.00000	0.00000	2600.00000	0.00000	0.00000	2600.00000	0.00000	0.00000	2600.00000	0.00000	0.00000	2600.00000	0.00000	0.00000	2600.00000	0.00000	0.00000	2600.00000	-12.16900	-32.58900	2648.15800	0.00000	0.00000	2600.00000	0.00000	0.00000	2600.00000	0.00000	0.00000	2600.00000	0.00000	0.00000	2600.00000	0.00000	0.00000	2600.00000	0.00000	0.00000	2600.00000	0.00000	0.00000	2600.00000	0.00000	0.00000	2600.00000	0.00000	0.00000	2600.00000	0.00000	0.00000	2600.00000	0.00000	0.00000	2600.00000	0.00000	0.00000	2600.00000	0.00000	0.00000	2600.00000	0.00000	0.00000	2600.00000	0.00000	0.00000	2600.00000	0.00000	0.00000	2600.00000	0.00000	0.00000	2600.00000	0.00000	0.00000	2600.00000	0.00000	0.00000	2600.00000	0.00000	0.00000	2600.00000	12.16900	-32.58900	2648.15800	0.00000	0.00000	2600.00000	0.00000	0.00000	2600.00000	0.00000	0.00000	2600.00000	0.00000	0.00000	2600.00000	0.00000	0.00000	2600.00000	0.00000	0.00000	2600.00000	0.00000	-328.00000	2648.15800
116	3.833333	0.00000	-392.00000	2644.94000	-20.80000	-412.80000	2644.94000	20.80000	-412.80000	2644.94000	-48.00000	-393.60000	2644.94000	48.00000	-393.60000	2644.94000	-88.00000	-312.00000	2644.94000	88.00000	-312.00000	2644.94000	-44.85800	-168.00000	2644.94000	44.85800	-168.00000	2644.94000	-51.20000	0.00000	2644.94000	51.20000	0.00000	2644.94000	-115.91300	184.00000	2644.94000	115.91300	162.42900	2644.94000	-187.81700	360.00000	2644.94000	187.81700	324.04800	2644.94000	-216.57800	387.20000	2644.94000	-235.77800	387.20000	2644.94000	-173.43600	384.00000	2644.94000	216.57800	351.24800	2644.94000	235.77800	351.24800	2644.94000	173.43600	348.04800	2644.94000	0.00000	0.00000	2600.00000	0.00000	0.00000	2600.00000	0.00000	0.00000	2600.00000	0.00000	0.00000	2600.00000	0.00000	0.00000	2600.00000	0.00000	0.00000	2600.00000	0.00000	0.00000	2600.00000	0.00000	0.00000	2600.00000	0.00000	0.00000	2600.00000	0.00000	0.00000	2600.00000	0.00000	0.00000	2600.00000	0.00000	0.00000	2600.00000	0.00000	0.00000	2600.00000	0.00000	0.00000	2600.00000	0.00000	0.00000	2600.00000	0.00000	0.00000	2600.00000	0.00000	0.00000	2600.00000	0.00000	0.00000	2600.00000	0.00000	0.00000	2600.00000	0.00000	0.00000	2600.00000	-5.47500	-33.61900	2644.94000	0.00000	0.00000	2600.00000	0.00000	0.00000	2600.00000	0.00000	0.00000	2600.00000	0.00000	0.00000	2600.00000	0.00000	0.00000	2600.00000	0.00000	0.00000	2600.00000	0.00000	0.00000	2600.00000	0.00000	0.00000	2600.00000	0.00000	0.00000	2600.00000	0.00000	0.00000	2600.00000	0.00000	0.00000	2600.00000	0.00000	0.00000	2600.00000	0.00000	0.00000	2600.00000	0.00000	0.00000	2600.00000	0.00000	0.00000	2600.00000	0.00000	0.00000	2600.00000	0.00000	0.00000	2600.00000	0.00000	0.00000	2600.00000	0.00000	0.00000	2600.00000	0.00000	0.00000	2600.00000	5.47500	-33.61900	2644.94000	0.00000	0.00000	2600.00000	0.00000	0.00000	2600.00000	0.00000	0.00000	2600.00000	0.00000	0.00000	2600.00000	0.00000	0.00000	2600.00000	0.00000	0.00000	2600.00000	0.00000	-328.00000	2644.94000
